<mxfile host="Electron" modified="2023-11-13T17:58:06.357Z" agent="Mozilla/5.0 (X11; Linux x86_64) AppleWebKit/537.36 (KHTML, like Gecko) draw.io/22.0.3 Chrome/114.0.5735.289 Electron/25.8.4 Safari/537.36" etag="eqetG-kypOqwYu6JfC_N" version="22.0.3" type="device">
  <diagram id="C5RBs43oDa-KdzZeNtuy" name="Page-1">
    <mxGraphModel dx="1434" dy="838" grid="1" gridSize="10" guides="1" tooltips="1" connect="1" arrows="1" fold="1" page="1" pageScale="1" pageWidth="1169" pageHeight="827" math="0" shadow="0">
      <root>
        <mxCell id="WIyWlLk6GJQsqaUBKTNV-0" />
        <mxCell id="WIyWlLk6GJQsqaUBKTNV-1" parent="WIyWlLk6GJQsqaUBKTNV-0" />
        <mxCell id="WIyWlLk6GJQsqaUBKTNV-2" value="" style="rounded=0;html=1;jettySize=auto;orthogonalLoop=1;fontSize=11;endArrow=block;endFill=0;endSize=8;strokeWidth=1;shadow=0;labelBackgroundColor=none;edgeStyle=orthogonalEdgeStyle;" parent="WIyWlLk6GJQsqaUBKTNV-1" source="WIyWlLk6GJQsqaUBKTNV-3" target="WIyWlLk6GJQsqaUBKTNV-6" edge="1">
          <mxGeometry relative="1" as="geometry" />
        </mxCell>
        <mxCell id="WIyWlLk6GJQsqaUBKTNV-3" value="Análise de&lt;br&gt;Dados" style="rounded=1;whiteSpace=wrap;html=1;fontSize=12;glass=0;strokeWidth=1;shadow=0;" parent="WIyWlLk6GJQsqaUBKTNV-1" vertex="1">
          <mxGeometry x="135" y="136" width="120" height="50" as="geometry" />
        </mxCell>
        <mxCell id="WIyWlLk6GJQsqaUBKTNV-4" value="Não" style="rounded=0;html=1;jettySize=auto;orthogonalLoop=1;fontSize=11;endArrow=block;endFill=0;endSize=8;strokeWidth=1;shadow=0;labelBackgroundColor=none;edgeStyle=orthogonalEdgeStyle;entryX=1;entryY=0.5;entryDx=0;entryDy=0;" parent="WIyWlLk6GJQsqaUBKTNV-1" source="WIyWlLk6GJQsqaUBKTNV-6" target="83FkrZSqob5IvKfoqcq9-18" edge="1">
          <mxGeometry y="20" relative="1" as="geometry">
            <mxPoint as="offset" />
            <mxPoint x="195" y="366" as="targetPoint" />
          </mxGeometry>
        </mxCell>
        <mxCell id="WIyWlLk6GJQsqaUBKTNV-5" value="Sim" style="edgeStyle=orthogonalEdgeStyle;rounded=0;html=1;jettySize=auto;orthogonalLoop=1;fontSize=11;endArrow=block;endFill=0;endSize=8;strokeWidth=1;shadow=0;labelBackgroundColor=none;" parent="WIyWlLk6GJQsqaUBKTNV-1" source="WIyWlLk6GJQsqaUBKTNV-6" target="WIyWlLk6GJQsqaUBKTNV-7" edge="1">
          <mxGeometry y="10" relative="1" as="geometry">
            <mxPoint as="offset" />
          </mxGeometry>
        </mxCell>
        <mxCell id="WIyWlLk6GJQsqaUBKTNV-6" value="Algum dado&lt;br&gt;inválido?" style="rhombus;whiteSpace=wrap;html=1;shadow=0;fontFamily=Helvetica;fontSize=12;align=center;strokeWidth=1;spacing=6;spacingTop=-4;" parent="WIyWlLk6GJQsqaUBKTNV-1" vertex="1">
          <mxGeometry x="145" y="236" width="100" height="80" as="geometry" />
        </mxCell>
        <mxCell id="zN4eudSDsCzKFekTeeAF-0" style="edgeStyle=orthogonalEdgeStyle;rounded=0;orthogonalLoop=1;jettySize=auto;html=1;exitX=0.5;exitY=1;exitDx=0;exitDy=0;entryX=0.5;entryY=1;entryDx=0;entryDy=0;" edge="1" parent="WIyWlLk6GJQsqaUBKTNV-1" source="WIyWlLk6GJQsqaUBKTNV-7" target="83FkrZSqob5IvKfoqcq9-18">
          <mxGeometry relative="1" as="geometry" />
        </mxCell>
        <mxCell id="WIyWlLk6GJQsqaUBKTNV-7" value="Lote inteiro&lt;br&gt;é rejeitado" style="rounded=1;whiteSpace=wrap;html=1;fontSize=12;glass=0;strokeWidth=1;shadow=0;" parent="WIyWlLk6GJQsqaUBKTNV-1" vertex="1">
          <mxGeometry x="310" y="251" width="120" height="50" as="geometry" />
        </mxCell>
        <mxCell id="83FkrZSqob5IvKfoqcq9-5" value="" style="rounded=0;orthogonalLoop=1;jettySize=auto;html=1;dashed=1;dashPattern=8 8;strokeWidth=1;startArrow=none;startFill=0;endArrow=none;endFill=0;" parent="WIyWlLk6GJQsqaUBKTNV-1" source="83FkrZSqob5IvKfoqcq9-2" target="83FkrZSqob5IvKfoqcq9-3" edge="1">
          <mxGeometry relative="1" as="geometry" />
        </mxCell>
        <mxCell id="83FkrZSqob5IvKfoqcq9-2" value="Arquivo SISTAC" style="verticalLabelPosition=middle;verticalAlign=middle;html=1;shape=card;whiteSpace=wrap;size=20;arcSize=12;labelPosition=center;align=center;" parent="WIyWlLk6GJQsqaUBKTNV-1" vertex="1">
          <mxGeometry x="10" y="36" width="100" height="60" as="geometry" />
        </mxCell>
        <mxCell id="83FkrZSqob5IvKfoqcq9-6" value="" style="edgeStyle=orthogonalEdgeStyle;rounded=0;orthogonalLoop=1;jettySize=auto;html=1;" parent="WIyWlLk6GJQsqaUBKTNV-1" source="83FkrZSqob5IvKfoqcq9-3" target="WIyWlLk6GJQsqaUBKTNV-3" edge="1">
          <mxGeometry relative="1" as="geometry" />
        </mxCell>
        <mxCell id="83FkrZSqob5IvKfoqcq9-3" value="" style="strokeWidth=2;html=1;shape=mxgraph.flowchart.start_2;whiteSpace=wrap;" parent="WIyWlLk6GJQsqaUBKTNV-1" vertex="1">
          <mxGeometry x="180" y="51" width="30" height="30" as="geometry" />
        </mxCell>
        <mxCell id="83FkrZSqob5IvKfoqcq9-18" value="" style="ellipse;shape=doubleEllipse;whiteSpace=wrap;html=1;aspect=fixed;fillStyle=auto;direction=north;" parent="WIyWlLk6GJQsqaUBKTNV-1" vertex="1">
          <mxGeometry x="180" y="371" width="30" height="30" as="geometry" />
        </mxCell>
        <mxCell id="83FkrZSqob5IvKfoqcq9-26" value="" style="rounded=0;orthogonalLoop=1;jettySize=auto;html=1;dashed=1;dashPattern=8 8;strokeWidth=1;startArrow=none;startFill=0;endArrow=none;endFill=0;entryX=0.5;entryY=0;entryDx=0;entryDy=0;" parent="WIyWlLk6GJQsqaUBKTNV-1" source="83FkrZSqob5IvKfoqcq9-27" target="83FkrZSqob5IvKfoqcq9-18" edge="1">
          <mxGeometry relative="1" as="geometry">
            <mxPoint x="180" y="386" as="targetPoint" />
          </mxGeometry>
        </mxCell>
        <mxCell id="83FkrZSqob5IvKfoqcq9-27" value="Início do&lt;br&gt;Processamento" style="verticalLabelPosition=middle;verticalAlign=middle;html=1;shape=card;whiteSpace=wrap;size=20;arcSize=12;labelPosition=center;align=center;" parent="WIyWlLk6GJQsqaUBKTNV-1" vertex="1">
          <mxGeometry x="10" y="356" width="100" height="60" as="geometry" />
        </mxCell>
        <mxCell id="zN4eudSDsCzKFekTeeAF-1" value="" style="rounded=0;html=1;jettySize=auto;orthogonalLoop=1;fontSize=11;endArrow=block;endFill=0;endSize=8;strokeWidth=1;shadow=0;labelBackgroundColor=none;edgeStyle=orthogonalEdgeStyle;" edge="1" parent="WIyWlLk6GJQsqaUBKTNV-1" source="zN4eudSDsCzKFekTeeAF-2" target="zN4eudSDsCzKFekTeeAF-5">
          <mxGeometry relative="1" as="geometry" />
        </mxCell>
        <mxCell id="zN4eudSDsCzKFekTeeAF-2" value="Análise de&lt;br&gt;Dados" style="rounded=1;whiteSpace=wrap;html=1;fontSize=12;glass=0;strokeWidth=1;shadow=0;" vertex="1" parent="WIyWlLk6GJQsqaUBKTNV-1">
          <mxGeometry x="566" y="136" width="120" height="50" as="geometry" />
        </mxCell>
        <mxCell id="zN4eudSDsCzKFekTeeAF-3" value="Não" style="rounded=0;html=1;jettySize=auto;orthogonalLoop=1;fontSize=11;endArrow=block;endFill=0;endSize=8;strokeWidth=1;shadow=0;labelBackgroundColor=none;edgeStyle=orthogonalEdgeStyle;entryX=1;entryY=0.5;entryDx=0;entryDy=0;" edge="1" parent="WIyWlLk6GJQsqaUBKTNV-1" source="zN4eudSDsCzKFekTeeAF-5" target="zN4eudSDsCzKFekTeeAF-12">
          <mxGeometry y="20" relative="1" as="geometry">
            <mxPoint as="offset" />
            <mxPoint x="626" y="366" as="targetPoint" />
          </mxGeometry>
        </mxCell>
        <mxCell id="zN4eudSDsCzKFekTeeAF-4" value="Sim" style="edgeStyle=orthogonalEdgeStyle;rounded=0;html=1;jettySize=auto;orthogonalLoop=1;fontSize=11;endArrow=block;endFill=0;endSize=8;strokeWidth=1;shadow=0;labelBackgroundColor=none;" edge="1" parent="WIyWlLk6GJQsqaUBKTNV-1" source="zN4eudSDsCzKFekTeeAF-5" target="zN4eudSDsCzKFekTeeAF-7">
          <mxGeometry y="10" relative="1" as="geometry">
            <mxPoint as="offset" />
          </mxGeometry>
        </mxCell>
        <mxCell id="zN4eudSDsCzKFekTeeAF-5" value="Algum dado&lt;br&gt;inválido?" style="rhombus;whiteSpace=wrap;html=1;shadow=0;fontFamily=Helvetica;fontSize=12;align=center;strokeWidth=1;spacing=6;spacingTop=-4;" vertex="1" parent="WIyWlLk6GJQsqaUBKTNV-1">
          <mxGeometry x="576" y="236" width="100" height="80" as="geometry" />
        </mxCell>
        <mxCell id="zN4eudSDsCzKFekTeeAF-19" value="" style="edgeStyle=orthogonalEdgeStyle;rounded=0;orthogonalLoop=1;jettySize=auto;html=1;" edge="1" parent="WIyWlLk6GJQsqaUBKTNV-1" source="zN4eudSDsCzKFekTeeAF-7" target="zN4eudSDsCzKFekTeeAF-15">
          <mxGeometry relative="1" as="geometry" />
        </mxCell>
        <mxCell id="zN4eudSDsCzKFekTeeAF-7" value="Tentativa de&lt;br&gt;Correção" style="rounded=1;whiteSpace=wrap;html=1;fontSize=12;glass=0;strokeWidth=1;shadow=0;" vertex="1" parent="WIyWlLk6GJQsqaUBKTNV-1">
          <mxGeometry x="741" y="251" width="120" height="50" as="geometry" />
        </mxCell>
        <mxCell id="zN4eudSDsCzKFekTeeAF-8" value="" style="rounded=0;orthogonalLoop=1;jettySize=auto;html=1;dashed=1;dashPattern=8 8;strokeWidth=1;startArrow=none;startFill=0;endArrow=none;endFill=0;" edge="1" parent="WIyWlLk6GJQsqaUBKTNV-1" source="zN4eudSDsCzKFekTeeAF-9" target="zN4eudSDsCzKFekTeeAF-11">
          <mxGeometry relative="1" as="geometry" />
        </mxCell>
        <mxCell id="zN4eudSDsCzKFekTeeAF-9" value="Arquivo de&lt;br&gt;Soliticações" style="verticalLabelPosition=middle;verticalAlign=middle;html=1;shape=card;whiteSpace=wrap;size=20;arcSize=12;labelPosition=center;align=center;" vertex="1" parent="WIyWlLk6GJQsqaUBKTNV-1">
          <mxGeometry x="441" y="36" width="100" height="60" as="geometry" />
        </mxCell>
        <mxCell id="zN4eudSDsCzKFekTeeAF-10" value="" style="edgeStyle=orthogonalEdgeStyle;rounded=0;orthogonalLoop=1;jettySize=auto;html=1;" edge="1" parent="WIyWlLk6GJQsqaUBKTNV-1" source="zN4eudSDsCzKFekTeeAF-11" target="zN4eudSDsCzKFekTeeAF-2">
          <mxGeometry relative="1" as="geometry" />
        </mxCell>
        <mxCell id="zN4eudSDsCzKFekTeeAF-11" value="" style="strokeWidth=2;html=1;shape=mxgraph.flowchart.start_2;whiteSpace=wrap;" vertex="1" parent="WIyWlLk6GJQsqaUBKTNV-1">
          <mxGeometry x="611" y="51" width="30" height="30" as="geometry" />
        </mxCell>
        <mxCell id="zN4eudSDsCzKFekTeeAF-12" value="" style="ellipse;shape=doubleEllipse;whiteSpace=wrap;html=1;aspect=fixed;fillStyle=auto;direction=north;" vertex="1" parent="WIyWlLk6GJQsqaUBKTNV-1">
          <mxGeometry x="611" y="456" width="30" height="30" as="geometry" />
        </mxCell>
        <mxCell id="zN4eudSDsCzKFekTeeAF-13" value="" style="rounded=0;orthogonalLoop=1;jettySize=auto;html=1;dashed=1;dashPattern=8 8;strokeWidth=1;startArrow=none;startFill=0;endArrow=none;endFill=0;entryX=0.5;entryY=0;entryDx=0;entryDy=0;" edge="1" parent="WIyWlLk6GJQsqaUBKTNV-1" source="zN4eudSDsCzKFekTeeAF-14" target="zN4eudSDsCzKFekTeeAF-12">
          <mxGeometry relative="1" as="geometry">
            <mxPoint x="611" y="386" as="targetPoint" />
          </mxGeometry>
        </mxCell>
        <mxCell id="zN4eudSDsCzKFekTeeAF-14" value="Arquivo SISTAC;&lt;br&gt;Planilha de Erros" style="verticalLabelPosition=middle;verticalAlign=middle;html=1;shape=card;whiteSpace=wrap;size=20;arcSize=12;labelPosition=center;align=center;" vertex="1" parent="WIyWlLk6GJQsqaUBKTNV-1">
          <mxGeometry x="441" y="440" width="100" height="60" as="geometry" />
        </mxCell>
        <mxCell id="zN4eudSDsCzKFekTeeAF-15" value="Foi possível&lt;br&gt;corrigir?" style="rhombus;whiteSpace=wrap;html=1;shadow=0;fontFamily=Helvetica;fontSize=12;align=center;strokeWidth=1;spacing=6;spacingTop=-4;" vertex="1" parent="WIyWlLk6GJQsqaUBKTNV-1">
          <mxGeometry x="751" y="341" width="100" height="80" as="geometry" />
        </mxCell>
        <mxCell id="zN4eudSDsCzKFekTeeAF-18" value="Sim" style="edgeStyle=orthogonalEdgeStyle;rounded=0;html=1;jettySize=auto;orthogonalLoop=1;fontSize=11;endArrow=block;endFill=0;endSize=8;strokeWidth=1;shadow=0;labelBackgroundColor=none;exitX=0.5;exitY=1;exitDx=0;exitDy=0;entryX=0.5;entryY=1;entryDx=0;entryDy=0;" edge="1" parent="WIyWlLk6GJQsqaUBKTNV-1" source="zN4eudSDsCzKFekTeeAF-15" target="zN4eudSDsCzKFekTeeAF-12">
          <mxGeometry y="10" relative="1" as="geometry">
            <mxPoint as="offset" />
            <mxPoint x="811" y="311" as="sourcePoint" />
            <mxPoint x="801" y="526" as="targetPoint" />
          </mxGeometry>
        </mxCell>
        <mxCell id="zN4eudSDsCzKFekTeeAF-20" value="Não" style="rounded=0;html=1;jettySize=auto;orthogonalLoop=1;fontSize=11;endArrow=block;endFill=0;endSize=8;strokeWidth=1;shadow=0;labelBackgroundColor=none;edgeStyle=orthogonalEdgeStyle;exitX=1;exitY=0.5;exitDx=0;exitDy=0;entryX=0.5;entryY=0;entryDx=0;entryDy=0;" edge="1" parent="WIyWlLk6GJQsqaUBKTNV-1" source="zN4eudSDsCzKFekTeeAF-15" target="zN4eudSDsCzKFekTeeAF-21">
          <mxGeometry y="20" relative="1" as="geometry">
            <mxPoint as="offset" />
            <mxPoint x="991" y="296" as="targetPoint" />
            <mxPoint x="636" y="326" as="sourcePoint" />
          </mxGeometry>
        </mxCell>
        <mxCell id="zN4eudSDsCzKFekTeeAF-22" style="edgeStyle=orthogonalEdgeStyle;rounded=0;orthogonalLoop=1;jettySize=auto;html=1;exitX=0;exitY=0.5;exitDx=0;exitDy=0;entryX=0;entryY=0.5;entryDx=0;entryDy=0;" edge="1" parent="WIyWlLk6GJQsqaUBKTNV-1" source="zN4eudSDsCzKFekTeeAF-21" target="zN4eudSDsCzKFekTeeAF-12">
          <mxGeometry relative="1" as="geometry">
            <mxPoint x="830.9999999999998" y="525.2413793103449" as="targetPoint" />
          </mxGeometry>
        </mxCell>
        <mxCell id="zN4eudSDsCzKFekTeeAF-21" value="Planilha de&lt;br&gt;Erros" style="rounded=1;whiteSpace=wrap;html=1;fontSize=12;glass=0;strokeWidth=1;shadow=0;" vertex="1" parent="WIyWlLk6GJQsqaUBKTNV-1">
          <mxGeometry x="851" y="500" width="120" height="50" as="geometry" />
        </mxCell>
        <mxCell id="zN4eudSDsCzKFekTeeAF-23" value="&lt;b&gt;Modelo SISTAC&lt;/b&gt;" style="text;html=1;align=center;verticalAlign=middle;resizable=0;points=[];autosize=1;strokeColor=none;fillColor=none;" vertex="1" parent="WIyWlLk6GJQsqaUBKTNV-1">
          <mxGeometry x="50" width="110" height="30" as="geometry" />
        </mxCell>
        <mxCell id="zN4eudSDsCzKFekTeeAF-24" value="&lt;b&gt;Modelo &lt;i&gt;IsenSys&lt;/i&gt;&lt;/b&gt;" style="text;html=1;align=center;verticalAlign=middle;resizable=0;points=[];autosize=1;strokeColor=none;fillColor=none;" vertex="1" parent="WIyWlLk6GJQsqaUBKTNV-1">
          <mxGeometry x="551" width="110" height="30" as="geometry" />
        </mxCell>
      </root>
    </mxGraphModel>
  </diagram>
</mxfile>
